<svg xmlns="http://www.w3.org/2000/svg" viewBox="0 0 400 80">
  <defs>
    <!-- Circuit pattern for the GO circle -->
    <pattern id="circuit" x="0" y="0" width="20" height="20" patternUnits="userSpaceOnUse">
      <path d="M0 10 H8 M12 10 H20 M10 0 V8 M10 12 V20" stroke="#1a8fcf" stroke-width="1" fill="none"/>
      <circle cx="10" cy="10" r="2" fill="#1a8fcf"/>
      <circle cx="0" cy="10" r="1.5" fill="#1a8fcf"/>
      <circle cx="20" cy="10" r="1.5" fill="#1a8fcf"/>
      <circle cx="10" cy="0" r="1.5" fill="#1a8fcf"/>
      <circle cx="10" cy="20" r="1.5" fill="#1a8fcf"/>
    </pattern>
  </defs>

  <!-- Blue circle with circuit pattern -->
  <circle cx="40" cy="40" r="38" fill="#2ba4dc"/>
  <circle cx="40" cy="40" r="38" fill="url(#circuit)" opacity="0.4"/>

  <!-- Circuit traces overlay -->
  <g stroke="#1a8fcf" stroke-width="1.2" fill="none" opacity="0.5">
    <path d="M15 25 H25 L30 30 H50"/>
    <path d="M10 40 H20 L25 35"/>
    <path d="M15 55 H30 L35 50 H55"/>
    <path d="M25 15 V25 L30 30"/>
    <path d="M55 20 V30 L50 35"/>
    <path d="M60 45 H50 L45 50"/>
    <path d="M40 60 V50"/>
    <circle cx="25" cy="25" r="2"/>
    <circle cx="55" cy="30" r="2"/>
    <circle cx="50" cy="50" r="2"/>
    <circle cx="30" cy="55" r="2"/>
  </g>

  <!-- GO text -->
  <text x="40" y="50" font-family="'Open Sans', Arial, sans-serif" font-size="28" font-weight="300" fill="white" text-anchor="middle">GO</text>

  <!-- SEMI & BEYOND text -->
  <text x="95" y="50" font-family="'Open Sans', Arial, sans-serif" font-size="28" fill="#333" font-weight="300">
    <tspan fill="#333">SEMI</tspan>
    <tspan fill="#91003c" dx="4">&amp;</tspan>
    <tspan fill="#333" dx="4">BEYOND</tspan>
  </text>
</svg>
